<svg xmlns="http://www.w3.org/2000/svg" viewBox="0 0 48 48"><defs><style>.cls-1{fill:#9fdbf3;}.cls-2{fill:#b2e5fb;}.cls-3{fill:#9dcc6b;}.cls-4{fill:#b5e08c;}</style></defs><title>36. Ozon</title><g id="_36._Ozon" data-name="36. Ozon"><path class="cls-1" d="M38,24A14,14,0,0,1,24,38C10.82,38,5,21.41,15.16,13.16A14,14,0,0,1,38,24Z"/><path class="cls-2" d="M38,24c0,17.56-26,14.91-26-2C12,4.4,38,7,38,24Z"/><path class="cls-3" d="M24.61,13.65c-1.22,1.83-3,0-4.26.61s.27,2,.61,3.65c.61,3.05-2.44,1.83-3.66,2.44-1.54.76-.28,3.49-1.82,4.26-2.51,1.27-4.17-1.52-4.87-4.26-.45-1.28,3.8-10.29,13.31-10.35C24.23,10,25.55,12.23,24.61,13.65Z"/><path class="cls-4" d="M23.61,11.65c-1.22,1.83-3,0-4.26.61s.27,2,.61,3.65c.61,3.05-2.44,1.83-3.66,2.44-1.54.76-.28,3.49-1.82,4.26A1.71,1.71,0,0,1,12,20.94c.28-3.66,2.22-7,3.28-7.92a14,14,0,0,1,8.6-3A2.24,2.24,0,0,1,23.61,11.65Z"/><path class="cls-3" d="M19.13,27a4.76,4.76,0,0,1,2.44,1.83c.6,1.22,2.47,0,3,1.22S24.22,32,23,32.22a2,2,0,0,0-1.57,1.93c-.06.55-1,1.17-1.72-1-.61-1.83-2.5-2-3-3S16.7,26.43,19.13,27Z"/><path class="cls-3" d="M23,32.22a2.06,2.06,0,0,0-1.57,1.93c-.06.57-1,1.13-1.72-1-.61-1.83-2.5-2-3-3a2.33,2.33,0,0,1,.78-2.93c1.38-.74,3.54.62,4.09,1.71s2.47,0,3,1.19C24.6,30.3,25.58,31.66,23,32.22Z"/><path class="cls-3" d="M34.35,23.84c-.43,1.29.61,4.26-.61,6.09-.69,1-2.37,1.7-3,1a2.77,2.77,0,0,1-.07-2.83c.5-1.26.6-3-1.22-3.65s-3.65.61-4.26-2.43c-.38-1.89,1.47-2.69,2.43-3.66,1.83-1.82,0-2.43.61-4.26.37-1.1,1.84-1.76,2.95-2.1a14,14,0,0,1,6.46,9A5.17,5.17,0,0,0,34.35,23.84Z"/><path class="cls-4" d="M37.67,21a5.19,5.19,0,0,0-3.32,2.87c-.37,1.11.35,3.47-.22,5.27-1.78.58-2.13-1.28-1.43-3,.5-1.26.6-3-1.22-3.65s-3.65.61-4.26-2.43c-.31-1.56.54-1.43,1.09-2.53,0-.1.76-.53,1.34-1.13,1.73-1.72.19-2.36.54-4a8.13,8.13,0,0,1,1-.39A14,14,0,0,1,37.67,21Z"/><path class="cls-2" d="M24,44A20,20,0,1,1,44,24,20,20,0,0,1,24,44ZM24,6A18,18,0,1,0,42,24,18,18,0,0,0,24,6Z"/><path class="cls-2" d="M22,46.93A1,1,0,0,1,24,47,1,1,0,0,1,22,46.93Zm5.12.86a1,1,0,0,1-.8-1.6c.35-.48.61-.3,2.61-.74A1,1,0,0,1,30,47C29.58,47.57,27.42,47.79,27.11,47.79Zm-8.2-.36a15.53,15.53,0,0,1-2.3-.59,1,1,0,0,1,.62-1.9c1.94.62,2.2.44,2.52,1A1,1,0,0,1,18.91,47.43Zm14.15-1.28a1,1,0,0,1-.93-1.38,1,1,0,1,1,.93,1.38ZM12.25,43.8a1,1,0,0,1,1.76.94A1,1,0,0,1,12.25,43.8Zm24.43.39a1,1,0,0,1-1-1.2c.15-.64.45-.53,2-1.8A1,1,0,0,1,39,42.76C37.64,43.82,37.06,44.19,36.68,44.19ZM9.68,43c-.54,0-1.1-.54-2.24-1.63a1,1,0,0,1,1.38-1.45c1.47,1.41,1.79,1.34,1.86,2A1,1,0,0,1,9.68,43Zm30.65-3.81a1,1,0,0,1,2-.13A1,1,0,0,1,40.33,39.19ZM4.82,36.74c1-.73,2.28.82,1.18,1.62A1,1,0,0,1,4.82,36.74Zm38-.71c-.15-.63.19-.71,1-2.49a1,1,0,0,1,1.84.1c.21.6-.19,1.21-1.06,2.66A1,1,0,0,1,42.78,36ZM3.29,35c-.87,0-1.14-1-1.75-2.54a1,1,0,0,1,1.87-.71c.23.61.49,1.22.78,1.81A1,1,0,0,1,3.29,35Zm42.89-3.9c-1.46,0-1.22-2.37.26-2A1,1,0,0,1,46.18,31.12Zm-44.81-2a1,1,0,1,1,1-1.18A1,1,0,0,1,1.37,29.15Zm45.54-2.09a1,1,0,0,1-.77-.36c-.4-.47-.14-.7-.14-2.7a1,1,0,1,1,2-.1C48,25.27,48.21,27.06,46.91,27.06ZM0,24c0-1.45-.16-3.1,1.17-3S2,22.6,2,24A1,1,0,1,1,0,24Zm46.62-3.2a1,1,0,0,1-1-.82,1,1,0,1,1,1,.82ZM.84,17.67a1,1,0,0,1,1.93.52A1,1,0,0,1,.84,17.67Zm44.67-.84c-.93,0-.89-.75-1.72-2.45a1,1,0,0,1,1.8-.88c.3.63.59,1.29.85,2A1,1,0,0,1,45.51,16.83ZM2.3,14.4c-.19-.6.21-1.2,1.06-2.66A1,1,0,0,1,5.19,12c.17.62-.2.73-1,2.5A1,1,0,0,1,2.3,14.4ZM42,9.6a1,1,0,0,1,1.18,1.62A1,1,0,0,1,42,9.6ZM6.64,9.91a1,1,0,1,1,.76-.35C7.5,9.56,7.08,9.91,6.64,9.91ZM39.83,8.32c-.6,0-.57-.29-2.17-1.57A1,1,0,0,1,38.9,5.18c1.14.92,1.93,1.5,1.93,2.12A1,1,0,0,1,39.83,8.32ZM9.61,7.05A1,1,0,0,1,9,5.27c.56-.45,1.14-.87,1.73-1.27a1,1,0,0,1,1.11,1.67C10.22,6.73,10.2,7.05,9.61,7.05ZM34.83,4.7c-1.71,0-1-2.65.47-1.88a1,1,0,0,1-.47,1.88ZM14.9,3.87A1,1,0,0,1,14.5,2C16,1.33,16.54,3.87,14.9,3.87ZM31,3.1c-.29,0-.67-.22-2.21-.57a1,1,0,0,1-.76-1.19c.3-1.31,1.91-.63,3.27-.2A1,1,0,0,1,31,3.1ZM18.81,2.59A1,1,0,0,1,18,1.05c.33-.52,1-.58,2.74-.83a1,1,0,0,1,.27,2C19.53,2.41,19.05,2.59,18.81,2.59ZM25,2a1,1,0,1,1,0-2A1,1,0,0,1,25,2Z"/><path class="cls-4" d="M23,32.22c-.79.16-1.5,1.27-2.29-1.09-.73-2.19-3.2-1.82-3.26-4A2.27,2.27,0,0,1,19.13,27c2.28.76,2.2,1.9,2.88,2.29s1.29.07,1.91.21C24.84,29.76,25.67,31.64,23,32.22Z"/></g></svg>